<svg xmlns="http://www.w3.org/2000/svg" width="1413" height="519" viewBox="0 0 1413 519" version="1.1"><path d="M 449 24.142 C 447.707 27.898, 447.016 28.596, 444 29.195 C 442.075 29.577, 435.550 30.416, 429.500 31.060 C 423.450 31.704, 417.201 32.898, 415.613 33.712 C 414.025 34.527, 411.611 36.387, 410.250 37.847 C 408.889 39.306, 406.700 42.918, 405.387 45.874 C 404.074 48.830, 403 52.786, 403 54.664 C 403 56.543, 403.856 59.749, 404.903 61.790 C 405.949 63.830, 407.862 66.439, 409.153 67.587 C 410.444 68.734, 414.348 70.684, 417.830 71.920 C 422.688 73.643, 425.278 74.012, 428.969 73.504 C 433.538 72.876, 433.975 72.534, 437.708 66.671 C 439.869 63.277, 442.438 58.475, 443.417 56 C 444.396 53.525, 446.464 45.200, 448.011 37.500 C 450.664 24.301, 450.830 23.850, 450.912 29.611 C 450.961 32.972, 450.064 40.397, 448.920 46.111 C 447.776 51.825, 445.900 59.200, 444.751 62.500 C 443.602 65.800, 442.343 68.950, 441.953 69.500 C 441.564 70.050, 440.943 71.486, 440.574 72.690 C 440.124 74.160, 440.659 76.044, 442.202 78.420 C 443.579 80.541, 446.087 82.599, 448.460 83.556 C 450.637 84.433, 455.380 85.400, 459 85.703 C 464.449 86.160, 466.294 85.891, 469.732 84.137 C 472.016 82.972, 474.973 80.552, 476.304 78.759 C 477.635 76.967, 479.236 73.970, 479.862 72.101 C 480.488 70.231, 481 66.739, 481 64.340 C 481 61.941, 480.069 57.997, 478.931 55.576 C 477.491 52.513, 474.678 49.482, 469.681 45.610 C 465.731 42.550, 461.299 38.964, 459.830 37.641 C 458.362 36.318, 456.121 33.270, 454.850 30.868 C 453.580 28.465, 452.081 24.989, 451.520 23.142 C 450.500 19.783, 450.500 19.783, 449 24.142 M 547 24.142 C 545.707 27.898, 545.016 28.596, 542 29.195 C 540.075 29.577, 533.550 30.416, 527.500 31.060 C 521.450 31.704, 515.201 32.898, 513.613 33.712 C 512.025 34.527, 509.611 36.387, 508.250 37.847 C 506.889 39.306, 504.700 42.918, 503.387 45.874 C 502.074 48.830, 501 52.786, 501 54.664 C 501 56.543, 501.856 59.749, 502.903 61.790 C 503.949 63.830, 505.862 66.439, 507.153 67.587 C 508.444 68.734, 512.348 70.684, 515.830 71.920 C 520.688 73.643, 523.278 74.012, 526.969 73.504 C 531.538 72.876, 531.975 72.534, 535.708 66.671 C 537.869 63.277, 540.438 58.475, 541.417 56 C 542.396 53.525, 544.464 45.200, 546.011 37.500 C 548.664 24.301, 548.830 23.850, 548.912 29.611 C 548.961 32.972, 548.064 40.397, 546.920 46.111 C 545.776 51.825, 543.900 59.200, 542.751 62.500 C 541.602 65.800, 540.343 68.950, 539.953 69.500 C 539.564 70.050, 538.943 71.486, 538.574 72.690 C 538.124 74.160, 538.659 76.044, 540.202 78.420 C 541.579 80.541, 544.087 82.599, 546.460 83.556 C 548.637 84.433, 553.380 85.400, 557 85.703 C 562.449 86.160, 564.294 85.891, 567.732 84.137 C 570.016 82.972, 572.973 80.552, 574.304 78.759 C 575.635 76.967, 577.236 73.970, 577.862 72.101 C 578.488 70.231, 579 66.739, 579 64.340 C 579 61.941, 578.069 57.997, 576.931 55.576 C 575.491 52.513, 572.678 49.482, 567.681 45.610 C 563.731 42.550, 559.299 38.964, 557.830 37.641 C 556.362 36.318, 554.121 33.270, 552.850 30.868 C 551.580 28.465, 550.081 24.989, 549.520 23.142 C 548.500 19.783, 548.500 19.783, 547 24.142 M 644 24.142 C 642.707 27.898, 642.016 28.596, 639 29.195 C 637.075 29.577, 630.550 30.416, 624.500 31.060 C 618.450 31.704, 612.201 32.898, 610.613 33.712 C 609.025 34.527, 606.611 36.387, 605.250 37.847 C 603.889 39.306, 601.700 42.918, 600.387 45.874 C 599.074 48.830, 598 52.786, 598 54.664 C 598 56.543, 598.856 59.749, 599.903 61.790 C 600.949 63.830, 602.862 66.439, 604.153 67.587 C 605.444 68.734, 609.348 70.684, 612.830 71.920 C 617.688 73.643, 620.278 74.012, 623.969 73.504 C 628.538 72.876, 628.975 72.534, 632.708 66.671 C 634.869 63.277, 637.438 58.475, 638.417 56 C 639.396 53.525, 641.464 45.200, 643.011 37.500 C 645.664 24.301, 645.830 23.850, 645.912 29.611 C 645.961 32.972, 645.064 40.397, 643.920 46.111 C 642.776 51.825, 640.900 59.200, 639.751 62.500 C 638.602 65.800, 637.343 68.950, 636.953 69.500 C 636.564 70.050, 635.943 71.486, 635.574 72.690 C 635.124 74.160, 635.659 76.044, 637.202 78.420 C 638.579 80.541, 641.087 82.599, 643.460 83.556 C 645.637 84.433, 650.380 85.400, 654 85.703 C 659.449 86.160, 661.294 85.891, 664.732 84.137 C 667.016 82.972, 669.973 80.552, 671.304 78.759 C 672.635 76.967, 674.236 73.970, 674.862 72.101 C 675.488 70.231, 676 66.739, 676 64.340 C 676 61.941, 675.069 57.997, 673.931 55.576 C 672.491 52.513, 669.678 49.482, 664.681 45.610 C 660.731 42.550, 656.299 38.964, 654.830 37.641 C 653.362 36.318, 651.121 33.270, 649.850 30.868 C 648.580 28.465, 647.081 24.989, 646.520 23.142 C 645.500 19.783, 645.500 19.783, 644 24.142 M 602.500 119.661 C 601.400 119.896, 598.700 120.746, 596.500 121.549 C 593.971 122.472, 591.673 124.289, 590.250 126.490 C 589.013 128.405, 588.003 130.316, 588.006 130.736 C 588.010 131.156, 588.591 132.625, 589.298 134 C 590.005 135.375, 591.541 139.200, 592.712 142.500 C 593.883 145.800, 595.776 153.175, 596.920 158.889 C 598.064 164.603, 598.961 172.028, 598.912 175.389 C 598.830 181.150, 598.664 180.699, 596.011 167.500 C 594.464 159.800, 592.396 151.475, 591.417 149 C 590.438 146.525, 587.869 141.723, 585.708 138.329 C 581.975 132.466, 581.538 132.124, 576.969 131.496 C 573.278 130.988, 570.688 131.357, 565.830 133.080 C 562.348 134.316, 558.444 136.266, 557.153 137.413 C 555.862 138.561, 553.949 141.170, 552.903 143.210 C 551.856 145.251, 551 148.457, 551 150.336 C 551 152.214, 552.074 156.170, 553.387 159.126 C 554.700 162.082, 556.889 165.694, 558.250 167.153 C 559.611 168.613, 562.025 170.473, 563.613 171.288 C 565.201 172.102, 571.450 173.296, 577.500 173.940 C 583.550 174.584, 590.064 175.423, 591.976 175.805 C 594.954 176.401, 595.687 177.140, 597.098 180.969 C 598.745 185.438, 598.745 185.438, 599.458 182.192 C 599.850 180.407, 601.357 176.821, 602.807 174.223 C 604.257 171.625, 606.581 168.477, 607.972 167.227 C 609.362 165.976, 613.731 162.450, 617.681 159.390 C 622.678 155.518, 625.491 152.487, 626.931 149.424 C 628.069 147.003, 629 143.059, 629 140.660 C 629 138.261, 628.488 134.769, 627.862 132.899 C 627.236 131.030, 625.635 128.033, 624.304 126.241 C 622.973 124.448, 620.128 122.086, 617.982 120.991 C 615.531 119.740, 612.298 119.043, 609.290 119.116 C 606.655 119.180, 603.600 119.425, 602.500 119.661 M 502.500 120.661 C 501.400 120.896, 498.700 121.746, 496.500 122.549 C 493.971 123.472, 491.673 125.289, 490.250 127.490 C 489.012 129.405, 488.003 131.316, 488.006 131.736 C 488.010 132.156, 488.591 133.625, 489.298 135 C 490.005 136.375, 491.541 140.200, 492.712 143.500 C 493.883 146.800, 495.776 154.175, 496.920 159.889 C 498.064 165.603, 498.961 173.028, 498.912 176.389 C 498.830 182.150, 498.664 181.699, 496.011 168.500 C 494.464 160.800, 492.396 152.475, 491.417 150 C 490.438 147.525, 487.869 142.723, 485.708 139.329 C 481.975 133.466, 481.538 133.124, 476.969 132.496 C 473.278 131.988, 470.688 132.357, 465.830 134.080 C 462.348 135.316, 458.444 137.266, 457.153 138.413 C 455.862 139.561, 453.949 142.170, 452.903 144.210 C 451.856 146.251, 451 149.457, 451 151.336 C 451 153.214, 452.074 157.170, 453.387 160.126 C 454.700 163.082, 456.889 166.694, 458.250 168.153 C 459.611 169.613, 462.025 171.473, 463.613 172.288 C 465.201 173.102, 471.450 174.296, 477.500 174.940 C 483.550 175.584, 490.064 176.423, 491.976 176.805 C 494.954 177.401, 495.687 178.140, 497.098 181.969 C 498.745 186.438, 498.745 186.438, 499.458 183.192 C 499.850 181.407, 501.357 177.821, 502.807 175.223 C 504.257 172.625, 506.581 169.477, 507.972 168.227 C 509.362 166.976, 513.731 163.450, 517.681 160.390 C 522.678 156.518, 525.491 153.487, 526.931 150.424 C 528.069 148.003, 529 144.059, 529 141.660 C 529 139.261, 528.488 135.769, 527.862 133.899 C 527.236 132.030, 525.635 129.033, 524.304 127.241 C 522.973 125.448, 520.128 123.086, 517.982 121.991 C 515.531 120.740, 512.298 120.043, 509.290 120.116 C 506.655 120.180, 503.600 120.425, 502.500 120.661" stroke="none" fill="#00b000" fill-rule="evenodd"/><path d="M 448.119 36.500 C 446.809 43.650, 444.830 51.975, 443.720 55 C 442.610 58.025, 439.673 63.650, 437.192 67.500 C 434.712 71.350, 429.227 77.930, 425.004 82.121 C 419.665 87.420, 415.219 90.772, 410.413 93.121 C 403.500 96.500, 403.500 96.500, 298.500 97.084 C 198.789 97.638, 192.719 97.774, 178 99.792 C 169.475 100.961, 160.475 102.564, 158 103.354 C 155.525 104.145, 151.025 105.759, 148 106.941 C 144.975 108.124, 141.150 109.765, 139.500 110.588 C 137.850 111.412, 134.475 113.255, 132 114.684 C 129.525 116.112, 121.200 121.443, 113.500 126.528 C 105.800 131.614, 97.586 137.644, 95.246 139.929 C 90.992 144.082, 90.992 144.082, 88.598 141.689 C 87.281 140.372, 85.435 137.808, 84.495 135.991 C 83.556 134.174, 82.387 132.196, 81.897 131.594 C 81.407 130.992, 79.699 129.037, 78.102 127.250 C 76.505 125.462, 74.893 124, 74.520 124 C 74.147 124, 71.825 121.983, 69.360 119.518 C 66.895 117.053, 63.331 114.302, 61.439 113.404 C 59.548 112.506, 58 111.373, 58 110.886 C 58 110.399, 57.100 110, 56 110 C 54.900 110, 54 109.550, 54 109 C 54 108.450, 53.100 108, 52 108 C 50.900 108, 49.996 107.662, 49.992 107.250 C 49.988 106.838, 48.773 105.938, 47.293 105.250 C 45.812 104.562, 44.016 104, 43.301 104 C 42.585 104, 42 103.660, 42 103.245 C 42 102.829, 40.357 101.975, 38.348 101.346 C 34.789 100.233, 34.574 100.319, 29.848 104.739 C 27.182 107.233, 25 109.901, 25 110.668 C 25 111.435, 25.788 112.305, 26.750 112.602 C 27.712 112.899, 32.325 115.022, 37 117.321 C 41.675 119.619, 47.896 122.998, 50.824 124.828 C 53.752 126.658, 60.164 132.169, 65.074 137.074 C 69.983 141.978, 74 146.377, 74 146.847 C 74 147.318, 75.350 149.116, 77 150.843 C 78.650 152.569, 80 154.492, 80 155.115 C 80 155.738, 78.206 159.005, 76.012 162.374 C 73.819 165.743, 69.881 171.598, 67.262 175.383 C 64.643 179.169, 61.825 183.669, 61 185.383 C 60.175 187.098, 58.634 189.778, 57.576 191.340 C 56.518 192.902, 54.833 195.602, 53.832 197.340 C 52.831 199.078, 49.979 204.439, 47.495 209.253 C 45.010 214.067, 41.593 221.492, 39.901 225.753 C 38.209 230.014, 36.482 233.950, 36.062 234.500 C 35.643 235.050, 34.125 238.590, 32.690 242.366 C 30.080 249.233, 30.080 249.233, 34.886 254.271 C 37.529 257.042, 40.178 259.008, 40.773 258.640 C 41.368 258.273, 42.402 256.291, 43.072 254.236 C 43.741 252.181, 45.799 247.258, 47.644 243.296 C 49.490 239.334, 51 235.615, 51 235.031 C 51 234.447, 53.694 228.689, 56.987 222.235 C 60.280 215.781, 64.152 208.475, 65.590 206 C 67.028 203.525, 68.759 200.825, 69.435 200 C 70.111 199.175, 71.393 196.925, 72.284 195 C 73.174 193.075, 76.062 188.489, 78.701 184.809 C 81.341 181.129, 84.278 176.721, 85.230 175.013 C 86.638 172.486, 87.296 172.088, 88.767 172.875 C 89.761 173.407, 91.962 177.591, 93.658 182.171 C 95.354 186.752, 97.350 192.750, 98.093 195.500 C 99.183 199.538, 99.490 222.790, 99.684 316.379 C 99.816 380.112, 100.198 432.532, 100.533 432.866 C 100.868 433.201, 103.574 430.944, 106.548 427.850 C 111.954 422.224, 111.954 422.224, 111.978 312.589 C 111.999 218.968, 111.781 201.752, 110.490 194.727 C 109.659 190.202, 108.612 184.700, 108.164 182.500 C 107.716 180.300, 106.091 175.350, 104.552 171.500 C 103.014 167.650, 100.870 163.249, 99.788 161.720 C 97.821 158.940, 97.821 158.940, 101.626 154.720 C 103.718 152.399, 107.246 148.975, 109.465 147.110 C 111.684 145.246, 119.201 139.958, 126.168 135.360 C 133.135 130.762, 139.107 127, 139.438 127 C 139.769 127, 141.922 125.812, 144.222 124.360 C 146.522 122.908, 151.575 120.396, 155.452 118.778 C 159.328 117.160, 165.650 115.005, 169.500 113.989 C 173.350 112.973, 182.575 111.342, 190 110.365 C 202.166 108.765, 215.569 108.557, 325.659 108.261 C 447.819 107.932, 447.819 107.932, 456.565 112.087 C 463.495 115.380, 466.905 117.825, 472.996 123.871 C 477.224 128.067, 482.701 134.650, 485.169 138.500 C 487.636 142.350, 490.452 147.525, 491.426 150 C 492.400 152.475, 494.464 160.800, 496.011 168.500 C 498.664 181.699, 498.830 182.150, 498.912 176.389 C 498.961 173.028, 498.067 165.603, 496.928 159.889 C 495.788 154.175, 493.976 147.025, 492.902 144 C 491.828 140.975, 490.534 137.600, 490.028 136.500 C 489.522 135.400, 488.094 132.025, 486.856 129 C 485.618 125.975, 483.692 122.150, 482.577 120.500 C 481.462 118.850, 478.758 115.588, 476.567 113.250 C 472.584 109, 472.584 109, 512.399 109 C 552.214 109, 552.214 109, 558.770 112.129 C 563.301 114.291, 567.697 117.611, 573.004 122.879 C 577.227 127.070, 582.701 133.650, 585.169 137.500 C 587.636 141.350, 590.452 146.525, 591.426 149 C 592.400 151.475, 594.464 159.800, 596.011 167.500 C 598.664 180.699, 598.830 181.150, 598.912 175.389 C 598.961 172.028, 598.067 164.603, 596.928 158.889 C 595.788 153.175, 593.976 146.025, 592.902 143 C 591.828 139.975, 590.534 136.600, 590.028 135.500 C 589.522 134.400, 588.094 131.025, 586.856 128 C 585.618 124.975, 583.692 121.150, 582.577 119.500 C 581.462 117.850, 578.758 114.588, 576.567 112.250 C 572.584 108, 572.584 108, 589.569 108 C 603.652 108, 606.978 107.719, 609.027 106.358 C 610.387 105.454, 614.793 101.517, 618.817 97.608 C 622.842 93.698, 627.356 88.700, 628.849 86.500 C 630.342 84.300, 632.586 80.025, 633.836 77 C 635.085 73.975, 636.522 70.600, 637.028 69.500 C 637.534 68.400, 638.828 65.025, 639.902 62 C 640.976 58.975, 642.788 51.825, 643.928 46.111 C 645.067 40.397, 645.961 32.972, 645.912 29.611 C 645.830 23.850, 645.664 24.301, 643.011 37.500 C 641.464 45.200, 639.400 53.525, 638.426 56 C 637.452 58.475, 634.636 63.650, 632.169 67.500 C 629.701 71.350, 624.267 77.881, 620.091 82.012 C 614.841 87.208, 610.216 90.677, 605.093 93.262 C 597.685 97, 597.685 97, 560.134 97 C 522.584 97, 522.584 97, 526.567 92.750 C 528.758 90.413, 531.462 87.150, 532.577 85.500 C 533.692 83.850, 535.618 80.025, 536.856 77 C 538.094 73.975, 539.522 70.600, 540.028 69.500 C 540.534 68.400, 541.828 65.025, 542.902 62 C 543.976 58.975, 545.788 51.825, 546.928 46.111 C 548.067 40.397, 548.961 32.972, 548.912 29.611 C 548.830 23.850, 548.664 24.301, 546.011 37.500 C 544.464 45.200, 542.400 53.525, 541.426 56 C 540.452 58.475, 537.636 63.650, 535.169 67.500 C 532.701 71.350, 527.222 77.935, 522.992 82.133 C 517.224 87.858, 513.397 90.670, 507.679 93.383 C 500.057 97, 500.057 97, 462.320 97 C 424.584 97, 424.584 97, 428.567 92.750 C 430.758 90.413, 433.462 87.150, 434.577 85.500 C 435.692 83.850, 437.618 80.025, 438.856 77 C 440.094 73.975, 441.522 70.600, 442.028 69.500 C 442.534 68.400, 443.829 65.025, 444.905 62 C 445.981 58.975, 447.815 51.687, 448.982 45.805 C 450.149 39.923, 450.967 32.498, 450.802 29.305 C 450.511 23.720, 450.410 23.992, 448.119 36.500 M 1287.168 145.416 C 1282.046 150.831, 1282.046 150.831, 1282.022 260.439 C 1282.001 354.035, 1282.219 371.248, 1283.510 378.273 C 1284.341 382.798, 1285.388 388.300, 1285.836 390.500 C 1286.284 392.700, 1287.909 397.650, 1289.448 401.500 C 1290.986 405.350, 1293.130 409.751, 1294.212 411.280 C 1296.179 414.060, 1296.179 414.060, 1292.374 418.280 C 1290.282 420.601, 1286.754 424.025, 1284.535 425.890 C 1282.316 427.754, 1274.799 433.042, 1267.832 437.640 C 1260.865 442.238, 1254.909 446, 1254.597 446 C 1254.285 446, 1251.886 447.304, 1249.265 448.897 C 1246.644 450.490, 1241.125 453.158, 1237 454.825 C 1232.875 456.492, 1225.675 458.760, 1221 459.864 C 1216.325 460.969, 1205.300 462.579, 1196.500 463.443 C 1182.572 464.810, 1155.466 465.013, 987.157 465.007 C 793.814 465, 793.814 465, 798.657 470.461 C 803.500 475.922, 803.500 475.922, 1003 475.668 C 1202.263 475.415, 1202.517 475.412, 1217 473.234 C 1224.975 472.035, 1233.525 470.413, 1236 469.631 C 1238.475 468.848, 1242.975 467.241, 1246 466.059 C 1249.025 464.876, 1252.850 463.235, 1254.500 462.412 C 1256.150 461.588, 1259.525 459.745, 1262 458.316 C 1264.475 456.888, 1272.800 451.557, 1280.500 446.472 C 1288.200 441.386, 1296.414 435.356, 1298.754 433.071 C 1303.008 428.918, 1303.008 428.918, 1305.402 431.311 C 1306.719 432.628, 1308.565 435.192, 1309.505 437.009 C 1310.444 438.826, 1311.613 440.804, 1312.103 441.406 C 1312.593 442.008, 1314.301 443.962, 1315.898 445.750 C 1317.495 447.537, 1319.107 449, 1319.480 449 C 1319.853 449, 1322.175 451.017, 1324.640 453.482 C 1327.105 455.947, 1330.669 458.698, 1332.561 459.596 C 1334.452 460.494, 1336 461.627, 1336 462.114 C 1336 462.601, 1336.900 463, 1338 463 C 1339.100 463, 1340 463.450, 1340 464 C 1340 464.550, 1340.900 465, 1342 465 C 1343.100 465, 1344.004 465.337, 1344.008 465.750 C 1344.012 466.163, 1345.227 467.063, 1346.707 467.750 C 1348.188 468.437, 1349.984 469, 1350.699 469 C 1351.415 469, 1352 469.340, 1352 469.755 C 1352 470.171, 1353.643 471.025, 1355.652 471.654 C 1359.211 472.767, 1359.426 472.681, 1364.152 468.261 C 1366.818 465.767, 1369 463.099, 1369 462.332 C 1369 461.565, 1368.213 460.695, 1367.250 460.398 C 1366.287 460.101, 1361.675 457.978, 1357 455.679 C 1352.325 453.381, 1346.104 450.002, 1343.176 448.172 C 1340.248 446.342, 1333.836 440.831, 1328.926 435.926 C 1324.017 431.022, 1320 426.623, 1320 426.153 C 1320 425.682, 1318.650 423.884, 1317 422.157 C 1315.350 420.431, 1314 418.508, 1314 417.885 C 1314 417.262, 1315.794 413.995, 1317.988 410.626 C 1320.181 407.257, 1324.119 401.402, 1326.738 397.617 C 1329.357 393.831, 1332.175 389.331, 1333 387.617 C 1333.825 385.902, 1335.366 383.222, 1336.424 381.660 C 1337.482 380.098, 1339.167 377.398, 1340.168 375.660 C 1341.169 373.922, 1344.021 368.561, 1346.505 363.747 C 1348.990 358.933, 1352.407 351.508, 1354.099 347.247 C 1355.791 342.986, 1357.518 339.050, 1357.938 338.500 C 1358.357 337.950, 1359.875 334.410, 1361.310 330.634 C 1363.920 323.767, 1363.920 323.767, 1359.114 318.729 C 1356.471 315.958, 1353.822 313.992, 1353.227 314.360 C 1352.632 314.727, 1351.598 316.709, 1350.928 318.764 C 1350.259 320.819, 1348.201 325.742, 1346.356 329.704 C 1344.510 333.666, 1343 337.385, 1343 337.969 C 1343 338.553, 1340.306 344.311, 1337.013 350.765 C 1333.720 357.219, 1329.848 364.525, 1328.410 367 C 1326.972 369.475, 1325.241 372.175, 1324.565 373 C 1323.889 373.825, 1322.607 376.075, 1321.716 378 C 1320.826 379.925, 1317.938 384.511, 1315.299 388.191 C 1312.659 391.871, 1309.722 396.279, 1308.770 397.987 C 1307.362 400.514, 1306.704 400.912, 1305.233 400.125 C 1304.239 399.593, 1302.038 395.409, 1300.342 390.829 C 1298.646 386.248, 1296.648 380.250, 1295.903 377.500 C 1294.811 373.469, 1294.501 351.953, 1294.305 266.500 C 1294.171 208.200, 1294.047 155.887, 1294.031 150.250 C 1294.014 144.613, 1293.615 140, 1293.145 140 C 1292.675 140, 1289.985 142.437, 1287.168 145.416" stroke="none" fill="#653a01" fill-rule="evenodd"/><path d="M 1219.355 154.516 C 1219.035 155.350, 1219.420 157.995, 1220.209 160.394 C 1221.645 164.755, 1221.645 164.755, 1218.573 162.881 C 1216.883 161.851, 1214.128 161.006, 1212.450 161.004 C 1210.773 161.002, 1208.860 161.540, 1208.200 162.200 C 1207.540 162.860, 1207 164.682, 1207 166.250 C 1207 167.817, 1207.662 170.379, 1208.471 171.944 C 1209.924 174.755, 1209.904 174.796, 1206.721 175.416 C 1204.949 175.761, 1202.494 176.821, 1201.264 177.772 C 1199.225 179.347, 1199.129 179.831, 1200.180 183.246 C 1200.814 185.306, 1202.203 187.781, 1203.267 188.746 C 1204.330 189.711, 1207.068 191.400, 1209.350 192.500 C 1213.005 194.262, 1213.483 194.882, 1213.358 197.700 C 1213.275 199.564, 1211.605 203.315, 1209.358 206.682 C 1206.058 211.628, 1204.402 213.011, 1197.912 216.243 C 1193.739 218.321, 1186.553 221.118, 1181.943 222.458 C 1177.333 223.798, 1173.489 224.806, 1173.402 224.697 C 1173.314 224.589, 1171.694 222.025, 1169.802 219 C 1167.911 215.975, 1165.731 211.928, 1164.959 210.006 C 1164.187 208.085, 1163.556 203.251, 1163.556 199.264 C 1163.556 194.212, 1164.002 191.572, 1165.028 190.551 C 1165.838 189.746, 1169.650 187.824, 1173.500 186.281 C 1179.477 183.886, 1180.977 182.764, 1183.763 178.606 C 1186.264 174.872, 1186.765 173.421, 1185.908 172.389 C 1185.112 171.430, 1184.264 171.324, 1182.961 172.021 C 1181.955 172.559, 1180.652 173, 1180.066 173 C 1179.480 173, 1178.994 171.762, 1178.986 170.250 C 1178.979 168.738, 1178.688 166.436, 1178.340 165.136 C 1177.766 162.992, 1177.292 162.820, 1173.228 163.278 C 1169.871 163.656, 1168.163 164.499, 1166.410 166.641 C 1164.209 169.333, 1164.070 169.373, 1164.036 167.321 C 1164.016 166.123, 1163.268 164.411, 1162.373 163.516 C 1160.871 162.014, 1160.555 162.066, 1158.237 164.195 C 1156.857 165.463, 1154.934 168.300, 1153.962 170.500 C 1152.991 172.700, 1151.892 177.232, 1151.521 180.571 C 1151.068 184.636, 1151.361 189.137, 1152.405 194.193 C 1153.263 198.346, 1154.274 202.589, 1154.652 203.622 C 1155.030 204.655, 1157.677 209.100, 1160.533 213.500 C 1163.389 217.900, 1166.688 222.357, 1167.863 223.405 C 1169.038 224.453, 1170 225.622, 1170 226.003 C 1170 226.384, 1168.190 227.512, 1165.978 228.510 C 1163.766 229.507, 1158.647 233.787, 1154.602 238.021 C 1150.202 242.627, 1146.746 247.239, 1145.999 249.503 C 1145.248 251.778, 1144.979 255.509, 1145.324 258.855 C 1145.649 261.995, 1147.120 266.794, 1148.700 269.863 C 1150.240 272.855, 1153.230 276.698, 1155.345 278.402 C 1159.129 281.451, 1159.364 281.500, 1170.345 281.499 C 1180.828 281.497, 1181.821 281.319, 1186.834 278.544 C 1190.493 276.518, 1192.770 274.411, 1194.084 271.835 C 1195.231 269.586, 1196 266.032, 1196 262.975 C 1196 258.741, 1195.117 256.218, 1190.826 248.185 C 1187.981 242.858, 1184.407 236.893, 1182.885 234.930 C 1180.117 231.360, 1180.117 231.360, 1183.514 230.131 C 1185.383 229.455, 1189.912 227.237, 1193.578 225.201 C 1198.065 222.709, 1203.025 218.577, 1208.760 212.553 C 1213.444 207.632, 1218.787 201.332, 1220.633 198.553 C 1222.479 195.774, 1225.389 191.851, 1227.101 189.835 C 1229.778 186.682, 1230.353 184.968, 1231.214 177.576 C 1231.991 170.914, 1231.914 167.960, 1230.871 164.429 C 1230.131 161.923, 1228.109 158.327, 1226.378 156.437 C 1224.647 154.546, 1222.489 153, 1221.584 153 C 1220.678 153, 1219.675 153.682, 1219.355 154.516 M 841.187 194.311 C 835.958 199.606, 835.958 199.606, 834.982 215.553 C 834.445 224.324, 833.587 233.975, 833.073 237 C 832.560 240.025, 831.414 245.425, 830.525 249 C 829.637 252.575, 828.764 256.625, 828.586 258 C 828.408 259.375, 826.383 267.700, 824.087 276.500 C 821.791 285.300, 818.410 297, 816.574 302.500 C 814.737 308, 812.486 315.081, 811.571 318.235 C 810.112 323.266, 808.765 325.107, 800.600 333.235 C 795.481 338.331, 790.078 344.605, 788.593 347.179 C 786.758 350.359, 785.653 354.109, 785.143 358.884 C 784.658 363.424, 783.749 366.619, 782.576 367.917 C 781.577 369.020, 779.126 370.771, 777.130 371.806 C 775.133 372.842, 771.074 374.491, 768.110 375.471 C 763.846 376.881, 760.711 377.143, 753.110 376.725 C 747.824 376.434, 741.391 375.444, 738.813 374.526 C 735.954 373.506, 733.209 371.617, 731.773 369.678 C 730.479 367.930, 727.925 363.207, 726.100 359.181 C 724.274 355.156, 722.768 350.881, 722.754 349.681 C 722.741 348.482, 723.240 345.076, 723.865 342.114 C 724.489 339.151, 725 335.263, 725 333.473 C 725 331.683, 724.213 328.478, 723.250 326.351 C 722.288 324.224, 720.186 320.771, 718.581 318.676 C 716.976 316.582, 713.854 313.946, 711.645 312.819 C 709.435 311.692, 704.567 309.921, 700.826 308.885 C 696.751 307.755, 690.788 307, 685.947 307 C 681.504 307, 676.918 307.509, 675.757 308.130 C 674.596 308.752, 670.919 309.896, 667.586 310.674 C 664.254 311.451, 659.703 313.156, 657.474 314.463 C 655.244 315.769, 650.063 320.380, 645.960 324.710 C 640.087 330.907, 637.344 334.904, 633.066 343.501 C 630.077 349.506, 625.016 358.330, 621.819 363.109 C 618.495 368.079, 614.615 372.612, 612.754 373.701 C 610.964 374.747, 605.751 377.108, 601.168 378.947 C 592.837 382.291, 592.837 382.291, 576.668 381.699 C 567.776 381.373, 557.784 380.602, 554.465 379.985 C 550.401 379.229, 545.829 377.288, 540.465 374.042 C 536.084 371.391, 530.170 367.260, 527.322 364.861 C 524.473 362.462, 521.437 358.804, 520.572 356.730 C 519.707 354.656, 519.035 351.281, 519.078 349.230 C 519.120 347.178, 519.936 343.250, 520.891 340.500 C 522.443 336.033, 523.260 335.157, 528.564 332.278 C 534.455 329.081, 534.609 329.056, 548.812 329.028 C 562.174 329.002, 563.488 329.172, 568.611 331.596 C 572.332 333.356, 574.941 335.465, 576.717 338.149 C 579.336 342.105, 579.336 342.105, 585.168 336.334 C 588.375 333.160, 591 329.831, 591 328.936 C 591 328.042, 590.192 326.579, 589.204 325.685 C 588.217 324.791, 584.279 322.606, 580.454 320.829 C 574.041 317.849, 572.533 317.566, 561.073 317.191 C 551.619 316.882, 546.834 317.204, 541.073 318.537 C 536.908 319.501, 531.925 321.090, 530 322.068 C 528.075 323.047, 523.505 326.919, 519.844 330.674 C 516.184 334.428, 511.268 340.650, 508.921 344.500 C 506.574 348.350, 503.038 355.100, 501.064 359.500 C 499.089 363.900, 495.952 370.144, 494.092 373.375 C 490.710 379.251, 490.710 379.251, 484.576 378.758 C 481.202 378.487, 476.585 377.319, 474.317 376.162 C 472.049 375.005, 468.800 372.367, 467.097 370.301 C 464.368 366.991, 464 365.804, 464 360.319 C 464 356.895, 464.501 352.835, 465.114 351.297 C 465.726 349.759, 467.123 346.557, 468.218 344.182 C 469.313 341.806, 470.443 338.115, 470.730 335.979 C 471.016 333.843, 470.952 331.318, 470.588 330.369 C 470.037 328.933, 469.004 329.552, 464.463 334.037 C 460.111 338.335, 459 340.082, 459 342.627 C 459 344.385, 457.395 349.573, 455.433 354.157 C 453.471 358.741, 451.221 363.203, 450.433 364.074 C 449.645 364.945, 449 366.085, 449 366.608 C 449 367.130, 446.188 370.307, 442.750 373.668 C 439.313 377.029, 434.525 380.998, 432.112 382.489 C 428.144 384.940, 426.985 385.166, 419.987 384.848 C 412.913 384.527, 411.262 384.005, 400.711 378.755 C 391.331 374.087, 388.734 372.310, 386.835 369.256 C 384.687 365.801, 384.501 364.417, 384.510 352 C 384.515 344.575, 385.134 333.325, 385.886 327 C 386.638 320.675, 387.458 307.473, 387.709 297.663 C 387.966 287.579, 387.692 276.272, 387.077 271.651 C 386.478 267.155, 385.072 261.007, 383.951 257.988 C 382.830 254.970, 380.639 249.786, 379.082 246.468 C 377.525 243.150, 373.905 237.869, 371.038 234.731 C 368.170 231.594, 362.482 226.792, 358.399 224.061 C 354.315 221.329, 345.467 216.423, 338.737 213.157 C 332.006 209.892, 324.025 206.449, 321 205.507 C 316.993 204.259, 308.797 203.501, 290.805 202.715 C 268.768 201.751, 264.892 201.823, 254.805 203.385 C 248.587 204.348, 238.325 206.726, 232 208.670 C 225.675 210.614, 218.250 213.484, 215.500 215.049 C 212.750 216.614, 207.527 220.956, 203.893 224.697 C 200.259 228.439, 195.643 233.706, 193.636 236.402 C 191.629 239.099, 189.315 243.568, 188.494 246.334 C 187.672 249.100, 187 254.193, 187 257.653 C 187 262.088, 187.692 265.500, 189.348 269.221 C 190.962 272.851, 194.048 276.728, 199.225 281.631 C 203.821 285.983, 210.018 290.535, 215.128 293.313 C 219.732 295.815, 227.072 298.794, 231.438 299.932 C 237.444 301.496, 242.435 301.997, 251.938 301.989 C 258.847 301.983, 266.208 301.696, 268.296 301.351 C 270.819 300.934, 273.750 299.232, 277.042 296.273 C 281.992 291.822, 281.992 291.822, 281.400 302.661 C 281.042 309.218, 279.402 320.018, 277.248 330 C 275.290 339.075, 272.958 348.228, 272.066 350.340 C 270.444 354.180, 270.444 354.180, 263.819 345.724 C 258.554 339.003, 255.585 336.277, 249.347 332.439 C 242.233 328.060, 240.822 327.570, 234.247 327.195 C 228.530 326.869, 224.929 327.352, 217.247 329.475 C 211.886 330.957, 205.054 333.144, 202.065 334.335 C 199.076 335.526, 194.218 338.702, 191.269 341.392 C 188.320 344.083, 185.254 347.851, 184.454 349.765 C 183.560 351.903, 183 356.595, 183 361.938 C 183 366.720, 183.456 373.303, 184.013 376.566 C 184.569 379.830, 185.770 383.972, 186.681 385.770 C 187.879 388.137, 190.147 389.933, 194.892 392.270 C 201.447 395.500, 201.447 395.500, 222.237 395.823 C 243.026 396.145, 243.026 396.145, 249.880 392.986 C 254.489 390.861, 258.637 387.904, 262.541 383.958 C 268.348 378.090, 268.348 378.090, 274.078 384.344 C 277.230 387.783, 282.439 392.204, 285.654 394.168 C 288.869 396.133, 293.260 398.307, 295.411 399 C 298.178 399.892, 303.591 400.105, 313.911 399.729 C 322.702 399.407, 330.409 398.593, 333.305 397.679 C 335.948 396.845, 341.348 394.249, 345.305 391.911 C 349.262 389.572, 355.699 384.473, 359.610 380.579 C 363.775 376.431, 368 371.015, 369.812 367.500 C 372.904 361.500, 372.904 361.500, 372.957 366.500 C 372.987 369.250, 373.475 373.169, 374.041 375.209 C 374.608 377.248, 376.518 380.366, 378.286 382.137 C 380.054 383.907, 386.225 387.631, 392 390.411 C 401.548 395.009, 403.253 395.501, 410.810 395.839 C 418.924 396.201, 419.266 396.122, 425.310 392.471 C 428.715 390.415, 436.338 383.962, 442.250 378.133 C 453 367.534, 453 367.534, 453 372.087 C 453 375.871, 453.610 377.352, 456.607 380.854 C 458.592 383.172, 462.079 386.028, 464.357 387.200 C 467.132 388.628, 471.041 389.483, 476.196 389.791 C 483.892 390.251, 483.892 390.251, 492.251 381.875 C 497.125 376.993, 502.030 370.910, 504.015 367.288 C 507.419 361.077, 507.419 361.077, 509.167 365.680 C 510.128 368.211, 512.396 371.592, 514.207 373.192 C 516.018 374.792, 521.198 378.573, 525.718 381.593 C 530.237 384.613, 535.864 387.937, 538.221 388.980 C 540.599 390.032, 547.113 391.348, 552.859 391.938 C 558.553 392.522, 568.103 393, 574.080 393 C 583.732 393, 585.766 392.675, 592.261 390.095 C 596.283 388.497, 601.583 386.156, 604.037 384.893 C 606.492 383.630, 612.102 378.974, 616.505 374.548 C 620.907 370.122, 626.789 363.233, 629.576 359.241 C 634.642 351.982, 634.642 351.982, 634.206 360.304 C 633.837 367.328, 634.095 369.265, 635.857 372.719 C 637.005 374.969, 639.162 377.769, 640.650 378.939 C 642.138 380.110, 646.133 382.393, 649.528 384.013 C 652.923 385.634, 658.806 387.685, 662.600 388.571 C 666.442 389.468, 671.938 390.002, 675 389.774 C 679.483 389.442, 681.873 388.481, 687.931 384.574 C 692.018 381.938, 699.159 375.984, 703.800 371.343 C 708.441 366.702, 712.311 363.039, 712.399 363.202 C 712.488 363.366, 713.884 366.425, 715.502 370 C 717.120 373.575, 719.706 378.155, 721.250 380.179 C 723.196 382.731, 725.654 384.415, 729.278 385.679 C 733.207 387.049, 737.471 387.500, 746.500 387.500 C 758.421 387.500, 758.553 387.474, 766.500 383.593 C 771.714 381.046, 776.719 377.563, 780.873 373.593 C 786.859 367.870, 787.314 367.621, 788.373 369.500 C 788.993 370.600, 791.310 373.300, 793.521 375.500 C 796.378 378.341, 800.129 380.500, 806.470 382.952 C 813.491 385.666, 817.224 386.487, 823.949 386.797 C 830.940 387.120, 833.546 386.797, 838.236 385.029 C 841.390 383.840, 846.790 380.986, 850.236 378.688 C 853.681 376.389, 859.718 371.454, 863.651 367.721 C 867.584 363.988, 872.496 358.474, 874.567 355.467 C 876.638 352.460, 878.427 350, 878.542 350 C 878.658 350, 878.149 352.813, 877.411 356.250 C 876.674 359.688, 876.054 364.932, 876.035 367.904 C 876.007 372.253, 876.678 374.520, 879.474 379.519 C 882.445 384.833, 883.665 386.040, 887.909 387.866 C 891.250 389.303, 894.953 390, 899.245 390 C 904.557 390, 906.861 389.391, 913.060 386.347 C 919.304 383.282, 922.680 380.509, 934.064 369.097 C 943.995 359.142, 948.496 353.826, 950.872 349.250 C 954.117 343, 954.117 343, 960.437 343 C 963.956 343, 968.471 342.290, 970.628 341.397 C 972.758 340.516, 977.875 337.739, 982 335.227 C 986.125 332.715, 990.962 329.298, 992.750 327.633 C 996 324.608, 996 324.608, 996 329.077 C 996 333.018, 996.562 334.158, 1000.750 338.711 C 1003.656 341.870, 1006.859 344.264, 1009 344.877 C 1010.925 345.428, 1014.300 346.561, 1016.500 347.396 C 1018.740 348.245, 1023.840 348.932, 1028.093 348.956 C 1033.134 348.985, 1037.604 348.340, 1041.389 347.038 C 1044.526 345.959, 1048.506 344.047, 1050.235 342.788 C 1051.963 341.530, 1056.939 336.961, 1061.293 332.634 C 1069.209 324.769, 1069.209 324.769, 1064.939 332.634 C 1060.751 340.350, 1060.668 340.691, 1060.585 350.500 C 1060.504 360.046, 1060.676 360.893, 1064.381 369.165 C 1066.942 374.884, 1069.806 379.396, 1072.804 382.438 C 1075.303 384.972, 1080.180 388.440, 1083.642 390.145 C 1089.840 393.196, 1090.125 393.237, 1102.218 392.831 C 1114.500 392.419, 1114.500 392.419, 1127.234 386.250 C 1134.238 382.857, 1142.563 378.423, 1145.734 376.397 C 1148.905 374.370, 1154.804 369.514, 1158.842 365.606 C 1162.880 361.698, 1167.789 356.317, 1169.751 353.649 C 1171.713 350.981, 1174.199 347.156, 1175.276 345.149 C 1176.352 343.142, 1178.028 339.925, 1178.999 338 C 1179.971 336.075, 1181.718 330.702, 1182.883 326.060 C 1184.183 320.875, 1185 314.447, 1185 309.394 C 1185 302.081, 1184.597 300.274, 1181.364 293.099 C 1177.901 285.416, 1177.602 285.066, 1175.114 285.765 C 1173.676 286.169, 1170.138 286.429, 1167.250 286.341 C 1164.362 286.254, 1162 286.409, 1162 286.687 C 1162 286.964, 1162.818 288.386, 1163.817 289.846 C 1164.816 291.306, 1167.584 296.858, 1169.968 302.185 C 1174.302 311.870, 1174.302 311.870, 1173.735 321.185 C 1173.400 326.697, 1172.524 331.725, 1171.590 333.500 C 1170.722 335.150, 1170.010 337.895, 1170.006 339.599 C 1170.003 341.304, 1168.370 345.804, 1166.378 349.599 C 1164.386 353.395, 1161.650 357.979, 1160.299 359.788 C 1158.947 361.596, 1156.103 364.172, 1153.979 365.513 C 1151.855 366.854, 1144.906 370.627, 1138.536 373.897 C 1132.166 377.168, 1124.692 380.329, 1121.928 380.922 C 1119.163 381.515, 1112.824 382, 1107.841 382 C 1099.588 382, 1098.251 381.718, 1092.848 378.838 C 1089.586 377.100, 1085.187 373.895, 1083.073 371.717 C 1080.861 369.437, 1077.590 364.096, 1075.365 359.129 C 1071.760 351.080, 1071.506 349.895, 1071.597 341.500 C 1071.689 332.886, 1071.876 332.162, 1075.961 324.615 C 1079.656 317.788, 1080.162 316.132, 1079.728 312.278 C 1079.452 309.829, 1078.722 307.322, 1078.107 306.707 C 1077.281 305.881, 1075.713 306.843, 1072.128 310.374 C 1069.157 313.300, 1066.803 316.716, 1066.069 319.163 C 1065.410 321.364, 1064.112 324.413, 1063.184 325.937 C 1062.257 327.462, 1060.068 329.914, 1058.320 331.385 C 1056.571 332.856, 1052.564 334.946, 1049.414 336.030 C 1046.004 337.203, 1041.050 338, 1037.169 338 C 1032.800 338, 1028.152 337.152, 1023.075 335.430 C 1016.945 333.350, 1014.677 331.967, 1011.182 328.180 C 1006.951 323.593, 1006.876 323.391, 1007.415 318 C 1007.718 314.975, 1008.247 310.815, 1008.592 308.755 C 1008.936 306.695, 1008.927 304.252, 1008.572 303.326 C 1008.043 301.950, 1006.930 302.625, 1002.476 307.024 C 998.854 310.601, 996.510 313.958, 995.489 317.033 C 994.609 319.682, 992.787 322.513, 991.226 323.657 C 989.727 324.757, 985.550 327.102, 981.944 328.870 C 975.829 331.867, 974.786 332.064, 966.444 331.792 C 957.500 331.500, 957.500 331.500, 957.183 327 C 957.003 324.428, 956.087 321.643, 955.046 320.500 C 954.045 319.400, 951.751 315.800, 949.949 312.500 C 948.147 309.200, 945.767 305.488, 944.662 304.250 C 943.041 302.436, 941.592 302, 937.181 302 C 932.981 302, 930.019 302.813, 924.433 305.500 C 920.431 307.425, 915.884 309.001, 914.328 309.002 C 912.676 309.004, 909.005 310.694, 905.500 313.067 C 902.200 315.301, 897.994 318.562, 896.153 320.314 C 894.312 322.066, 890.149 326.759, 886.902 330.741 C 883.655 334.724, 878.916 341.249, 876.371 345.241 C 873.826 349.234, 869.276 355.796, 866.260 359.824 C 863.244 363.853, 860.039 367.409, 859.138 367.726 C 858.237 368.044, 856.825 368.866, 856 369.552 C 855.175 370.239, 852.702 371.544, 850.503 372.452 C 846.507 374.104, 846.507 374.104, 849.776 370.731 C 853.045 367.359, 853.045 367.359, 854.044 332.429 C 854.593 313.218, 855.144 279.725, 855.268 258 C 855.493 218.500, 855.493 218.500, 852.352 208.500 C 850.624 203, 848.954 196.739, 848.641 194.586 C 848.329 192.434, 847.700 190.300, 847.244 189.844 C 846.789 189.389, 844.063 191.399, 841.187 194.311 M 243.500 214.668 C 238.550 215.507, 229.550 217.763, 223.500 219.682 C 217.450 221.601, 210.700 224.145, 208.500 225.336 C 205.481 226.969, 203.770 228.962, 201.521 233.466 C 199.332 237.847, 198.439 241.235, 198.157 246.223 C 197.856 251.558, 198.248 254.184, 199.988 258.472 C 201.638 262.536, 204.173 265.810, 209.918 271.300 C 214.162 275.354, 218.953 279.349, 220.567 280.179 C 222.180 281.008, 226.200 283.064, 229.500 284.747 C 232.800 286.430, 239.011 288.576, 243.302 289.516 C 249.315 290.832, 254.247 291.119, 264.802 290.768 C 272.336 290.517, 279.243 289.986, 280.151 289.587 C 281.060 289.188, 282.091 287.880, 282.444 286.681 C 282.796 285.481, 283.343 280, 283.659 274.500 C 284.234 264.500, 284.234 264.500, 288.829 259.750 C 291.357 257.137, 293.817 255, 294.297 255 C 294.777 255, 294.928 259.613, 294.632 265.250 C 294.336 270.887, 293.602 281.800, 293.001 289.500 C 292.400 297.200, 290.504 310.250, 288.789 318.500 C 287.073 326.750, 284.204 338.450, 282.413 344.500 C 280.622 350.550, 278.521 357.280, 277.743 359.455 C 276.330 363.408, 276.332 363.415, 280.580 369 C 282.918 372.074, 286.796 376.401, 289.198 378.615 C 291.599 380.828, 296.250 383.958, 299.532 385.570 C 304.819 388.166, 306.755 388.539, 316.500 388.846 C 322.550 389.036, 330.875 388.648, 334.999 387.983 C 339.469 387.263, 345.124 385.451, 348.999 383.497 C 352.575 381.695, 356.242 379.383, 357.149 378.360 C 358.056 377.337, 360.837 372.204, 363.329 366.954 C 365.821 361.704, 369.241 352.758, 370.930 347.074 C 372.618 341.390, 374 335.088, 374 333.070 C 374 331.051, 374.543 328.857, 375.206 328.194 C 376.026 327.374, 376.543 321.137, 376.824 308.676 C 377.060 298.198, 376.755 286.751, 376.113 281.920 C 375.495 277.276, 374.072 271.007, 372.951 267.988 C 371.830 264.970, 369.643 259.800, 368.092 256.500 C 366.540 253.200, 363.164 248.160, 360.588 245.300 C 358.013 242.441, 353.789 238.565, 351.203 236.687 C 348.616 234.809, 344.025 231.908, 341 230.240 C 337.975 228.571, 334.150 226.502, 332.500 225.642 C 330.850 224.782, 325.450 222.283, 320.500 220.090 C 315.550 217.897, 308.575 215.647, 305 215.089 C 301.425 214.532, 288.150 213.865, 275.500 213.609 C 257.738 213.249, 250.451 213.490, 243.500 214.668 M 842.773 235 C 842.405 236.925, 841.454 241.425, 840.659 245 C 839.864 248.575, 837.788 257.125, 836.047 264 C 834.306 270.875, 830.837 283.025, 828.339 291 C 825.841 298.975, 822.545 309.171, 821.014 313.657 C 818.232 321.815, 818.232 321.815, 827.513 322.157 C 834.604 322.419, 837.250 322.913, 838.726 324.250 C 839.788 325.212, 841.164 326, 841.783 326 C 842.403 326, 843.131 324.538, 843.402 322.750 C 843.673 320.962, 844.108 301.950, 844.368 280.500 C 844.629 259.050, 844.527 239.250, 844.141 236.500 C 843.441 231.500, 843.441 231.500, 842.773 235 M 1166.519 235.790 C 1160.662 237.810, 1158.187 239.202, 1157.221 241.021 C 1156.385 242.595, 1156.082 245.460, 1156.392 248.867 C 1156.660 251.819, 1158.067 256.660, 1159.517 259.625 C 1160.968 262.590, 1163.625 266.138, 1165.422 267.508 C 1167.219 268.879, 1169.485 270, 1170.459 270 C 1171.433 270, 1174.361 268.840, 1176.967 267.422 C 1180.048 265.745, 1182.281 263.635, 1183.352 261.388 C 1184.258 259.487, 1185 256.081, 1185 253.818 C 1185 250.824, 1183.760 247.428, 1180.448 241.351 C 1177.944 236.758, 1175.581 233.008, 1175.198 233.019 C 1174.814 233.029, 1170.909 234.276, 1166.519 235.790 M 1160.295 283.312 C 1161.282 284.123, 1164.048 285.080, 1166.440 285.439 C 1169.354 285.876, 1171.898 285.608, 1174.145 284.627 C 1177.479 283.172, 1177.451 283.163, 1169.832 283.082 C 1165.614 283.037, 1161.339 282.738, 1160.332 282.418 C 1158.575 281.860, 1158.573 281.897, 1160.295 283.312 M 902.169 323.058 C 896.233 325.891, 895.665 326.466, 893.057 332.290 C 891.526 335.705, 889.538 342.222, 888.637 346.770 C 887.737 351.319, 887 356.887, 887 359.143 C 887 361.870, 888.061 365.177, 890.165 369.004 C 892.620 373.469, 894.311 375.238, 897.692 376.881 C 900.653 378.319, 903.980 379, 908.052 379 C 912.933 379, 915.363 378.339, 921.103 375.448 C 924.983 373.494, 930.034 370.007, 932.328 367.698 C 934.623 365.389, 937.978 360.708, 939.784 357.297 C 941.590 353.885, 943.676 349.073, 944.419 346.604 C 945.758 342.153, 945.748 342.107, 943.135 341.177 C 941.686 340.661, 938.799 338.521, 936.720 336.422 C 934.640 334.323, 932.678 331.564, 932.358 330.290 C 932.038 329.016, 931.969 326.665, 932.204 325.064 C 932.584 322.475, 932.292 322.093, 929.566 321.605 C 927.879 321.304, 922.450 320.828, 917.500 320.547 C 909.019 320.066, 908.135 320.211, 902.169 323.058 M 656.915 325.484 C 652.660 328.828, 650.684 331.313, 648.618 335.917 C 646.683 340.228, 645.738 344.340, 645.320 350.260 C 644.819 357.362, 645.026 359.131, 646.761 362.529 C 647.875 364.713, 649.643 367.274, 650.689 368.220 C 651.735 369.166, 655.522 371.269, 659.104 372.893 C 662.685 374.517, 668.355 376.555, 671.702 377.423 C 675.050 378.290, 679.974 379, 682.644 378.999 C 686.507 378.999, 688.751 378.229, 693.618 375.236 C 696.983 373.166, 701.862 369.004, 704.460 365.986 C 707.059 362.969, 709.593 359.458, 710.092 358.185 C 710.592 356.912, 711 351.174, 711 345.435 C 711 339.581, 710.587 335, 710.059 335 C 709.541 335, 708.840 335.450, 708.500 336 C 708.160 336.550, 707.463 337, 706.951 337 C 706.439 337, 704.351 334.413, 702.310 331.250 C 700.269 328.087, 697.711 324.488, 696.625 323.250 C 694.728 321.088, 694.025 321.002, 678.576 321.047 C 662.500 321.094, 662.500 321.094, 656.915 325.484 M 807.618 339.661 C 805.483 343.423, 802.197 348.405, 800.316 350.732 C 796.895 354.965, 796.895 354.965, 799.432 359.293 C 800.827 361.674, 803.027 364.616, 804.321 365.832 C 805.615 367.048, 810.647 369.662, 815.504 371.642 C 822.291 374.409, 826.225 375.360, 832.510 375.752 C 840.686 376.262, 840.686 376.262, 841.345 366.881 C 841.708 361.722, 841.596 356.076, 841.096 354.335 C 840.597 352.594, 838.972 348.459, 837.485 345.145 C 835.500 340.722, 833.681 338.381, 830.641 336.337 C 827.228 334.042, 825.182 333.489, 819 333.188 C 811.500 332.823, 811.500 332.823, 807.618 339.661 M 209.500 340.230 C 205.650 341.327, 200.588 342.886, 198.250 343.695 C 194 345.165, 194 345.165, 194 352.899 C 194 357.153, 194.456 363.303, 195.013 366.566 C 195.569 369.830, 196.717 373.872, 197.562 375.549 C 198.407 377.226, 200.539 379.358, 202.299 380.286 C 204.060 381.215, 207.469 382.655, 209.876 383.487 C 213.187 384.632, 218.781 384.993, 232.876 384.969 C 249.797 384.941, 251.990 384.736, 256.855 382.719 C 260.933 381.029, 262.523 379.744, 263.523 377.331 C 264.699 374.492, 264.600 373.721, 262.574 369.933 C 261.329 367.607, 257.490 361.931, 254.041 357.321 C 250.591 352.710, 245.894 347.647, 243.602 346.070 C 241.310 344.494, 237.338 342.033, 234.775 340.602 C 230.936 338.458, 228.916 338.021, 223.308 338.117 C 219.563 338.182, 213.350 339.132, 209.500 340.230" stroke="none" fill="#c21f1f" fill-rule="evenodd"/></svg>